<svg width="538" height="345" viewBox="0 0 538 345" fill="none" xmlns="http://www.w3.org/2000/svg">
<g filter="url(#filter0_d_8_805)">
<path d="M512.246 29.3262L513.34 282.035C513.415 298.294 500.273 311.541 484.014 311.615L50.6748 313.489C34.416 313.564 21.1692 300.422 21.0942 284.163L20.0003 31.4541C19.9254 15.1953 33.0673 1.94846 49.3262 1.87354L482.665 0.000398136C488.479 -0.0295721 493.934 1.63377 498.504 4.55587C506.746 9.74071 512.201 18.8816 512.246 29.3262Z" fill="url(#paint0_linear_8_805)"/>
<path d="M393.204 0.899429C344.233 42.3632 338.269 94.3615 282.299 194.492C254.682 243.883 227.214 282.994 204.796 313.324L165.985 313.489C153.427 313.549 142.668 305.711 138.382 294.652C145.935 287.055 153.188 279.323 159.751 271.83C254.172 164.057 222.434 92.2486 310.022 7.83753C312.374 5.5598 314.742 3.35699 317.11 1.2291L393.204 0.899429Z" fill="url(#paint1_linear_8_805)"/>
<path d="M516.906 29.3263L517.191 94.6313C495.987 123.822 456.141 170.696 397.7 197.894C339.887 224.807 308.793 211.575 264.077 251.136C251.7 262.075 228.847 282.889 223.723 312.754L183.562 312.934C200.646 286.441 214.417 255.991 248.553 216.101C312.914 140.92 348.698 150.226 390.582 77.2336C394.028 71.2246 415.742 32.8028 422.215 0.300118L487.325 0.0153975C493.14 -0.0145727 498.594 1.64877 503.165 4.57087C511.406 9.74073 516.861 18.8816 516.906 29.3263Z" fill="url(#paint2_linear_8_805)"/>
<path d="M430.487 0.285172C423.999 32.8028 402.285 71.2246 398.838 77.2337C356.955 150.226 321.171 140.92 256.81 216.101C222.659 255.991 208.902 286.441 191.819 312.934L102.418 313.324C124.821 282.994 152.304 243.868 179.921 194.492C235.891 94.3616 241.84 42.3783 290.826 0.89956L430.487 0.285172Z" fill="url(#paint3_linear_8_805)"/>
<path d="M517.655 202.479L518 282.02C518.075 298.279 504.933 311.526 488.674 311.6L335.361 312.26C359.382 285.646 390.746 256.83 435.162 235.027C468.549 218.648 494.069 213.733 517.655 202.479Z" fill="url(#paint4_linear_8_805)"/>
<path d="M517.19 94.6313L517.655 202.479C494.068 213.733 468.549 218.648 435.162 235.027C390.761 256.83 359.382 285.646 335.361 312.26L223.707 312.739C228.817 282.874 251.684 262.06 264.062 251.121C308.793 211.56 339.872 224.792 397.684 197.879C456.141 170.696 495.987 123.822 517.19 94.6313Z" fill="url(#paint5_linear_8_805)"/>
<path d="M100.573 85.94L61.4464 86.1048C58.854 86.1198 56.7111 83.9919 56.6961 81.3995L56.5763 52.4933C56.5613 49.9008 58.6891 47.758 61.2816 47.743L100.408 47.5781C103 47.5632 105.143 49.691 105.158 52.2835L105.278 81.1897C105.293 83.7971 103.165 85.94 100.573 85.94Z" fill="#F6C859"/>
<path d="M75.398 80.935C75.1882 80.935 74.9934 80.8301 74.8885 80.6353C74.7386 80.3656 74.8585 80.0209 75.1283 79.871C75.9374 79.4515 77.0464 78.6572 77.6757 77.3086C78.4849 75.5853 78.2601 73.7122 77.9155 73.5623C77.8256 73.5174 77.4959 73.6972 77.2861 73.8021C76.7616 74.0718 76.0274 74.4464 75.1732 74.1617C74.334 73.877 73.9294 73.1427 73.7346 72.7831C72.4459 70.4604 72.0263 64.3914 73.36 61.3644C73.8096 60.3604 74.409 59.761 75.1582 59.5812C75.9225 59.4014 76.5518 59.7161 77.0613 59.9708C77.4809 60.1806 77.6907 60.2705 77.8106 60.1956C78.3351 59.8809 78.3201 57.9478 77.5708 56.4194C76.9265 55.0707 75.8176 54.2915 74.9934 53.8719C74.7237 53.737 74.6038 53.3924 74.7536 53.1226C74.8885 52.8529 75.2331 52.733 75.5029 52.8829C76.4769 53.3774 77.7956 54.3065 78.5748 55.9398C79.3541 57.5582 79.7287 60.3455 78.38 61.1696C77.7057 61.5892 77.0464 61.2596 76.5369 60.9898C76.1472 60.795 75.7726 60.6002 75.413 60.6901C74.9185 60.81 74.5738 61.3794 74.379 61.829C73.2102 64.4664 73.5698 70.2056 74.7087 72.2436C74.9035 72.5883 75.1283 72.9629 75.5329 73.0978C75.9075 73.2326 76.2671 73.0678 76.7766 72.7981C77.2711 72.5433 77.8256 72.2586 78.41 72.5433C79.6687 73.1427 79.5938 75.855 78.6947 77.7881C77.9305 79.4365 76.6118 80.3655 75.6378 80.875C75.5778 80.92 75.4879 80.935 75.398 80.935Z" fill="#7D662D"/>
<path d="M73.6295 62.3835L63.4996 62.4285C63.1849 62.4285 62.9302 62.1737 62.9302 61.874C62.9302 61.5593 63.1849 61.3046 63.4846 61.3046L73.6146 61.2596C73.9292 61.2596 74.184 61.5144 74.184 61.8141C74.199 62.1288 73.9442 62.3835 73.6295 62.3835Z" fill="#7D662D"/>
<path d="M73.6745 72.5133L63.5445 72.5583C63.2299 72.5583 62.9751 72.3036 62.9751 72.0039C62.9751 71.6892 63.2298 71.4344 63.5296 71.4344L73.6595 71.3895C73.9742 71.3895 74.2289 71.6442 74.2289 71.9439C74.2289 72.2436 73.9891 72.5133 73.6745 72.5133Z" fill="#7D662D"/>
<path d="M87.2059 80.8901C87.116 80.8901 87.0261 80.8751 86.9512 80.8301C85.9772 80.3356 84.6585 79.4065 83.8793 77.7732C82.9502 75.8551 82.8603 73.1428 84.119 72.5284C84.7034 72.2437 85.2579 72.5284 85.7524 72.7681C86.2619 73.0229 86.6215 73.1877 86.9962 73.0528C87.4157 72.903 87.6555 72.4534 87.8053 72.1837C88.9142 70.1308 89.2289 64.3915 88.0451 61.7691C87.8353 61.3195 87.4907 60.7501 86.9962 60.6452C86.6965 60.5703 86.5016 60.2706 86.5766 59.9709C86.6515 59.6712 86.9512 59.4764 87.2509 59.5513C88.0002 59.7311 88.6145 60.3155 89.0641 61.3195C90.4277 64.3315 90.0531 70.4005 88.7944 72.7382C88.5996 73.0978 88.195 73.8471 87.3708 74.1318C86.5166 74.4315 85.7824 74.0569 85.2579 73.7871C85.0481 73.6822 84.7034 73.5174 84.6285 73.5474C84.2839 73.7122 84.089 75.5853 84.9132 77.2936C85.5576 78.6423 86.6665 79.4215 87.4907 79.8411C87.7604 79.976 87.8803 80.3206 87.7304 80.5904C87.6105 80.7702 87.4157 80.8901 87.2059 80.8901Z" fill="#7D662D"/>
<path d="M84.8682 60.0908C84.6285 60.0908 84.4187 59.9409 84.3288 59.7011C83.115 56.0897 85.9172 53.2875 86.8313 52.823C87.101 52.6731 87.4457 52.793 87.5955 53.0628C87.7454 53.3325 87.6255 53.6771 87.3557 53.827C86.9512 54.0368 84.3737 56.2696 85.4077 59.3415C85.5126 59.6412 85.3477 59.9559 85.048 60.0608C84.9881 60.0758 84.9282 60.0908 84.8682 60.0908Z" fill="#7D662D"/>
<path d="M98.9396 62.2786L88.8097 62.3235C88.495 62.3235 88.2402 62.0688 88.2402 61.7691C88.2402 61.4544 88.495 61.1997 88.7947 61.1997L98.9246 61.1547C99.2393 61.1547 99.494 61.4094 99.494 61.7092C99.509 62.0238 99.2543 62.2786 98.9396 62.2786Z" fill="#7D662D"/>
<path d="M98.9843 72.4085L88.8544 72.4535C88.5397 72.4535 88.2849 72.1987 88.2849 71.899C88.2849 71.5844 88.5397 71.3296 88.8394 71.3296L98.9693 71.2847C99.284 71.2847 99.5387 71.5394 99.5387 71.8391C99.5537 72.1538 99.299 72.4085 98.9843 72.4085Z" fill="#7D662D"/>
<path d="M72.5829 138.208L72.5978 140.695L69.0614 140.546L71.1293 143.378L68.9265 144.711L67.1582 141.535L65.42 144.726L63.2322 143.408L65.2402 140.561L61.7486 140.725L61.7336 138.238L65.2252 138.418L63.1872 135.556L65.36 134.222L67.1283 137.399L68.8665 134.207L71.0843 135.526L69.0464 138.403L72.5829 138.208Z" fill="white"/>
<path d="M90.7897 138.118L90.8047 140.606L87.2682 140.471L89.3361 143.303L87.1333 144.637L85.3801 141.46L83.6418 144.652L81.469 143.333L83.477 140.486L79.9854 140.651L79.9705 138.163L83.462 138.343L81.424 135.481L83.5969 134.147L85.3651 137.324L87.1034 134.132L89.3212 135.451L87.2832 138.328L90.7897 138.118Z" fill="white"/>
<path d="M109.012 138.043L109.027 140.531L105.49 140.396L107.558 143.228L105.355 144.562L103.587 141.385L101.849 144.577L99.6611 143.258L101.669 140.411L98.1776 140.576L98.1626 138.088L101.654 138.268L99.6162 135.406L101.789 134.072L103.557 137.249L105.296 134.057L107.513 135.376L105.475 138.253L109.012 138.043Z" fill="white"/>
<path d="M127.218 137.968L127.233 140.456L123.697 140.321L125.765 143.153L123.562 144.487L121.794 141.31L120.055 144.502L117.868 143.183L119.876 140.336L116.384 140.516L116.369 138.028L119.861 138.208L117.823 135.346L119.996 134.012L121.764 137.189L123.502 133.997L125.72 135.316L123.682 138.193L127.218 137.968Z" fill="white"/>
<path d="M158.043 137.833L158.058 140.321L154.521 140.186L156.589 143.018L154.387 144.352L152.633 141.175L150.895 144.367L148.722 143.048L150.73 140.201L147.239 140.366L147.224 137.878L150.715 138.058L148.677 135.196L150.85 133.862L152.603 137.039L154.342 133.847L156.559 135.166L154.506 138.043L158.043 137.833Z" fill="white"/>
<path d="M176.25 137.758L176.265 140.246L172.728 140.111L174.796 142.943L172.593 144.277L170.84 141.1L169.102 144.292L166.929 142.973L168.937 140.126L165.445 140.306L165.43 137.818L168.922 137.998L166.884 135.136L169.057 133.802L170.825 136.979L172.563 133.787L174.781 135.106L172.743 137.983L176.25 137.758Z" fill="white"/>
<path d="M194.472 137.683L194.487 140.171L190.95 140.036L193.018 142.868L190.815 144.202L189.062 141.025L187.324 144.217L185.151 142.898L187.159 140.051L183.668 140.231L183.653 137.743L187.144 137.923L185.106 135.061L187.279 133.727L189.047 136.904L190.785 133.712L193.003 135.031L190.965 137.908L194.472 137.683Z" fill="white"/>
<path d="M212.679 137.594L212.694 140.081L209.157 139.946L211.225 142.778L209.022 144.112L207.254 140.935L205.516 144.127L203.328 142.808L205.336 139.961L201.844 140.141L201.829 137.653L205.321 137.833L203.283 134.971L205.456 133.637L207.224 136.814L208.962 133.622L211.18 134.941L209.142 137.818L212.679 137.594Z" fill="white"/>
<path d="M243.503 137.459L243.518 139.946L239.981 139.811L242.049 142.643L239.846 143.977L238.093 140.8L236.355 143.992L234.182 142.673L236.19 139.826L232.698 140.006L232.683 137.519L236.175 137.698L234.137 134.836L236.31 133.503L238.063 136.679L239.801 133.488L242.019 134.806L239.966 137.683L243.503 137.459Z" fill="white"/>
<path d="M261.71 137.384L261.725 139.871L258.188 139.736L260.256 142.569L258.053 143.902L256.3 140.725L254.562 143.917L252.389 142.598L254.397 139.751L250.905 139.931L250.89 137.444L254.382 137.623L252.344 134.761L254.517 133.428L256.27 136.604L258.008 133.413L260.226 134.731L258.173 137.608L261.71 137.384Z" fill="white"/>
<path d="M279.932 137.309L279.947 139.796L276.41 139.661L278.478 142.494L276.275 143.827L274.522 140.65L272.784 143.842L270.611 142.524L272.619 139.676L269.127 139.856L269.112 137.369L272.604 137.549L270.566 134.686L272.739 133.353L274.507 136.53L276.245 133.338L278.463 134.656L276.425 137.534L279.932 137.309Z" fill="white"/>
<path d="M298.139 137.234L298.154 139.721L294.617 139.587L296.685 142.419L294.482 143.752L292.729 140.576L290.991 143.767L288.818 142.449L290.826 139.602L287.334 139.766L287.319 137.279L290.811 137.459L288.773 134.596L290.946 133.263L292.699 136.44L294.437 133.248L296.655 134.567L294.602 137.444L298.139 137.234Z" fill="white"/>
<path d="M317.379 160.835L317.364 157.883L326.91 148.053C329.457 145.476 330.731 143.273 330.731 141.43C330.731 139.901 330.251 138.717 329.322 137.863C328.393 137.009 327.239 136.589 325.906 136.604C323.343 136.619 321.485 137.833 320.331 140.276L317.289 138.508C318.143 136.739 319.312 135.406 320.826 134.492C322.339 133.577 324.018 133.113 325.846 133.113C328.124 133.098 330.102 133.847 331.795 135.346C333.488 136.844 334.327 138.852 334.342 141.4C334.357 144.142 332.754 147.139 329.532 150.391L322.624 157.329L334.912 157.269L334.927 160.76L317.379 160.835Z" fill="white"/>
<path d="M351.156 144.636C353.224 145.011 354.932 145.91 356.266 147.304C357.599 148.697 358.259 150.466 358.274 152.624C358.289 155.261 357.39 157.359 355.591 158.887C353.778 160.416 351.59 161.195 348.998 161.21C346.93 161.225 345.087 160.76 343.483 159.816C341.88 158.872 340.726 157.524 340.052 155.74L343.079 153.942C343.888 156.445 345.866 157.689 348.998 157.689C350.676 157.689 352.055 157.239 353.104 156.355C354.168 155.471 354.692 154.242 354.677 152.669C354.677 151.095 354.138 149.851 353.074 148.967C352.01 148.083 350.631 147.648 348.953 147.648H348.024L346.585 145.446L352.834 136.919L340.756 136.979L340.741 133.607L357.045 133.533L357.03 136.709L351.156 144.636Z" fill="white"/>
<path d="M385.097 151.994L385.112 155.366L381.815 155.381L381.83 160.551L378.219 160.566L378.204 155.396L364.343 155.456L364.328 152.084L373.993 133.398L377.874 133.383L368.209 152.069L378.189 152.024L378.159 144.337L381.77 144.322L381.8 152.009L385.097 151.994Z" fill="white"/>
<path d="M399.273 143.902C401.835 143.887 404.008 144.637 405.791 146.15C407.575 147.649 408.474 149.746 408.474 152.414C408.489 155.051 407.59 157.134 405.776 158.678C403.963 160.221 401.775 160.985 399.183 161C397.115 161.015 395.257 160.521 393.623 159.532C391.99 158.543 390.836 157.104 390.192 155.216L393.249 153.463C393.623 154.781 394.313 155.785 395.362 156.46C396.396 157.149 397.669 157.479 399.168 157.479C400.876 157.479 402.255 157.029 403.319 156.145C404.383 155.261 404.907 154.032 404.892 152.444C404.892 150.87 404.353 149.627 403.289 148.742C402.225 147.858 400.861 147.409 399.213 147.424L391.526 147.454L392.44 133.353L407.35 133.293L407.365 136.664L395.751 136.709L395.302 143.932L399.273 143.902Z" fill="white"/>
<path d="M64.4607 236.164C62.8723 236.164 61.5536 235.655 60.5196 234.606C59.4857 233.572 58.9612 232.283 58.9612 230.755C58.9612 229.226 59.4707 227.937 60.4897 226.888C61.5236 225.839 62.8273 225.3 64.4158 225.3C65.3748 225.3 66.2589 225.525 67.0681 225.974C67.8773 226.424 68.5067 227.038 68.9562 227.817L67.7424 228.522C67.4427 227.937 66.9932 227.488 66.3938 227.143C65.7944 226.799 65.135 226.634 64.4158 226.634C63.202 226.634 62.2279 227.038 61.4637 227.817C60.6995 228.597 60.3248 229.571 60.3248 230.74C60.3248 231.893 60.7144 232.867 61.4787 233.647C62.2429 234.426 63.2319 234.816 64.4457 234.801C65.165 234.801 65.8244 234.621 66.4088 234.276C66.9932 233.931 67.4427 233.467 67.7424 232.897L68.9562 233.587C68.5217 234.366 67.8923 234.995 67.0981 235.46C66.3039 235.924 65.4198 236.164 64.4607 236.164Z" fill="white"/>
<path d="M76.5688 228.433H77.8725L77.9025 235.926H76.5988V234.637C75.9544 235.626 75.0103 236.121 73.7816 236.136C72.7326 236.136 71.8335 235.761 71.0992 234.997C70.35 234.232 69.9903 233.303 69.9753 232.209C69.9753 231.115 70.335 230.171 71.0693 229.407C71.8035 228.643 72.7026 228.253 73.7516 228.253C74.9953 228.253 75.9394 228.733 76.5838 229.722L76.5688 228.433ZM73.9314 234.877C74.6956 234.877 75.325 234.622 75.8345 234.098C76.344 233.588 76.5988 232.944 76.5838 232.179C76.5688 231.415 76.329 230.786 75.8045 230.276C75.2951 229.767 74.6507 229.512 73.9014 229.512C73.1522 229.512 72.5228 229.782 72.0133 230.291C71.5038 230.801 71.2491 231.445 71.2641 232.209C71.2641 232.974 71.5188 233.603 72.0433 234.113C72.5528 234.622 73.1822 234.877 73.9314 234.877Z" fill="white"/>
<path d="M81.154 229.677C81.5736 228.748 82.3529 228.283 83.4917 228.268V229.632C82.8474 229.602 82.3079 229.782 81.8434 230.141C81.3938 230.516 81.154 231.115 81.169 231.925L81.184 235.896H79.8803L79.8503 228.403H81.154V229.677Z" fill="white"/>
<path d="M90.5497 225.376H91.8534L91.8984 235.866H90.5947V234.577C89.9503 235.566 89.0063 236.061 87.7625 236.076C86.7136 236.076 85.8145 235.701 85.0802 234.937C84.3309 234.172 83.9563 233.243 83.9563 232.149C83.9563 231.056 84.3159 230.111 85.0502 229.347C85.7845 228.583 86.6836 228.193 87.7325 228.193C88.9763 228.193 89.9204 228.673 90.5647 229.662L90.5497 225.376ZM87.9124 234.817C88.6766 234.817 89.306 234.562 89.8155 234.038C90.325 233.528 90.5797 232.884 90.5647 232.119C90.5497 231.355 90.31 230.726 89.7855 230.216C89.276 229.707 88.6316 229.452 87.8824 229.452C87.1331 229.452 86.5038 229.722 85.9943 230.231C85.4848 230.741 85.23 231.385 85.245 232.149C85.26 232.914 85.4998 233.543 86.0242 234.053C86.5487 234.562 87.1631 234.817 87.9124 234.817Z" fill="white"/>
<path d="M104.186 225.316H105.565L105.61 235.806H104.231L104.216 231.086L99.1213 231.101L99.1363 235.821H97.7427L97.6978 225.331H99.0914L99.1064 229.782L104.201 229.767L104.186 225.316Z" fill="white"/>
<path d="M114.046 234.817C113.282 235.581 112.353 235.956 111.244 235.971C110.15 235.971 109.206 235.596 108.442 234.847C107.678 234.097 107.288 233.153 107.288 232.045C107.288 230.936 107.663 230.007 108.427 229.242C109.191 228.478 110.12 228.103 111.214 228.088C112.308 228.073 113.252 228.463 114.016 229.212C114.781 229.962 115.17 230.906 115.185 232.015C115.185 233.123 114.811 234.053 114.046 234.817ZM111.244 234.697C111.993 234.697 112.623 234.442 113.132 233.918C113.642 233.408 113.897 232.779 113.882 232.015C113.867 231.25 113.627 230.621 113.102 230.111C112.593 229.602 111.963 229.347 111.214 229.362C110.48 229.362 109.851 229.617 109.341 230.141C108.832 230.651 108.577 231.28 108.592 232.045C108.607 232.809 108.847 233.438 109.371 233.948C109.881 234.442 110.495 234.697 111.244 234.697Z" fill="white"/>
<path d="M116.744 235.746L116.699 224.807H118.003L118.048 235.746H116.744Z" fill="white"/>
<path d="M126.199 225.226H127.503L127.548 235.716H126.244V234.427C125.6 235.416 124.656 235.911 123.412 235.926C122.363 235.926 121.464 235.551 120.73 234.787C119.996 234.023 119.606 233.094 119.606 232C119.606 230.906 119.966 229.962 120.7 229.197C121.434 228.433 122.333 228.044 123.382 228.044C124.626 228.044 125.57 228.523 126.214 229.512L126.199 225.226ZM123.577 234.652C124.341 234.652 124.971 234.382 125.48 233.873C125.99 233.363 126.244 232.719 126.229 231.955C126.214 231.19 125.975 230.561 125.45 230.052C124.941 229.542 124.296 229.287 123.547 229.287C122.798 229.287 122.168 229.557 121.659 230.067C121.149 230.576 120.895 231.22 120.91 231.985C120.925 232.749 121.164 233.378 121.689 233.888C122.183 234.412 122.828 234.667 123.577 234.652Z" fill="white"/>
<path d="M130.425 232.539C130.56 233.213 130.86 233.723 131.354 234.098C131.849 234.472 132.433 234.652 133.152 234.637C134.141 234.637 134.861 234.262 135.31 233.528L136.419 234.157C135.7 235.296 134.606 235.851 133.137 235.866C131.954 235.866 130.98 235.506 130.23 234.757C129.481 234.023 129.106 233.079 129.106 231.94C129.106 230.816 129.466 229.872 130.185 229.122C130.905 228.373 131.849 227.999 133.018 227.984C134.111 227.984 135.011 228.358 135.715 229.137C136.404 229.902 136.764 230.846 136.764 231.925C136.764 232.119 136.749 232.314 136.719 232.509L130.425 232.539ZM133.003 229.227C132.298 229.227 131.729 229.422 131.264 229.827C130.8 230.216 130.53 230.756 130.41 231.415L135.415 231.4C135.295 230.696 135.026 230.156 134.561 229.782C134.126 229.407 133.602 229.227 133.003 229.227Z" fill="white"/>
<path d="M139.536 229.422C139.956 228.493 140.735 228.029 141.859 228.014V229.377C141.214 229.347 140.675 229.527 140.21 229.887C139.761 230.261 139.521 230.861 139.521 231.67L139.536 235.641H138.232L138.202 228.148H139.506L139.536 229.422Z" fill="white"/>
<path d="M150.61 227.924C151.494 227.924 152.199 228.193 152.723 228.748C153.247 229.302 153.517 230.052 153.532 230.996L153.547 235.596H152.243L152.228 231.071C152.228 230.456 152.064 229.992 151.734 229.662C151.404 229.332 150.94 229.167 150.37 229.167C149.726 229.167 149.202 229.377 148.797 229.782C148.392 230.186 148.198 230.816 148.212 231.655L148.227 235.626H146.924L146.894 228.134H148.198V229.212C148.707 228.358 149.516 227.924 150.61 227.924Z" fill="white"/>
<path d="M161.534 228.074H162.838L162.868 235.566H161.564V234.277C160.92 235.266 159.976 235.761 158.732 235.776C157.683 235.776 156.784 235.401 156.05 234.637C155.3 233.873 154.926 232.944 154.926 231.85C154.926 230.756 155.285 229.812 156.02 229.048C156.754 228.283 157.653 227.894 158.702 227.894C159.946 227.894 160.89 228.373 161.534 229.362V228.074ZM158.897 234.502C159.661 234.502 160.29 234.247 160.8 233.723C161.309 233.213 161.564 232.569 161.549 231.805C161.534 231.041 161.294 230.411 160.77 229.902C160.26 229.392 159.616 229.137 158.867 229.137C158.118 229.137 157.488 229.407 156.979 229.917C156.469 230.426 156.215 231.071 156.229 231.835C156.244 232.599 156.484 233.228 157.009 233.738C157.503 234.247 158.148 234.502 158.897 234.502Z" fill="white"/>
<path d="M172.893 227.819C173.732 227.819 174.406 228.089 174.931 228.628C175.455 229.167 175.71 229.902 175.725 230.831L175.74 235.491H174.436L174.421 230.876C174.421 230.291 174.272 229.857 173.972 229.527C173.672 229.212 173.268 229.048 172.773 229.048C172.219 229.048 171.769 229.242 171.439 229.617C171.11 229.992 170.945 230.561 170.945 231.34L170.96 235.506H169.656L169.641 230.891C169.641 230.306 169.491 229.872 169.207 229.542C168.922 229.212 168.532 229.063 168.038 229.063C167.483 229.063 167.034 229.257 166.674 229.632C166.314 230.007 166.135 230.591 166.135 231.34L166.15 235.506H164.846L164.816 228.014H166.12V229.018C166.629 228.208 167.363 227.819 168.352 227.804C169.356 227.804 170.091 228.223 170.555 229.063C171.065 228.253 171.844 227.834 172.893 227.819Z" fill="white"/>
<path d="M178.452 232.344C178.587 233.019 178.887 233.528 179.382 233.903C179.861 234.277 180.46 234.457 181.18 234.457C182.169 234.457 182.888 234.083 183.338 233.348L184.447 233.978C183.727 235.117 182.633 235.686 181.165 235.686C179.981 235.686 179.007 235.326 178.258 234.577C177.508 233.843 177.134 232.899 177.134 231.76C177.134 230.636 177.493 229.692 178.213 228.943C178.932 228.193 179.876 227.819 181.045 227.804C182.139 227.804 183.038 228.178 183.742 228.958C184.432 229.722 184.791 230.651 184.791 231.745C184.791 231.94 184.776 232.135 184.746 232.329L178.452 232.344ZM181.03 229.018C180.326 229.018 179.756 229.227 179.292 229.617C178.827 230.007 178.557 230.546 178.437 231.205L183.443 231.19C183.323 230.486 183.053 229.947 182.588 229.572C182.154 229.197 181.629 229.018 181.03 229.018Z" fill="white"/>
<path d="M69.256 251.031L72.4179 251.016L72.4778 267.05L70.0652 267.065L63.1571 257.279L63.202 267.08L60.0402 267.095L59.9802 251.061L62.3778 251.046L69.301 260.786L69.256 251.031Z" fill="white"/>
<path d="M85.0802 265.566C83.9113 266.735 82.4728 267.334 80.7795 267.334C79.0861 267.334 77.6476 266.765 76.4787 265.596C75.3099 264.427 74.7105 263.004 74.7105 261.31C74.6955 259.617 75.2799 258.179 76.4488 257.01C77.6176 255.841 79.0412 255.241 80.7345 255.241C82.4278 255.241 83.8664 255.811 85.0502 256.98C86.234 258.149 86.8334 259.572 86.8334 261.266C86.8334 262.959 86.249 264.382 85.0802 265.566ZM78.5467 263.558C79.1311 264.158 79.8803 264.442 80.7645 264.442C81.6486 264.442 82.3978 264.143 82.9823 263.543C83.5817 262.944 83.8664 262.18 83.8664 261.266C83.8664 260.351 83.5667 259.587 82.9673 259.003C82.3679 258.403 81.6336 258.119 80.7345 258.119C79.8504 258.119 79.1161 258.418 78.5317 259.018C77.9473 259.617 77.6476 260.381 77.6625 261.295C77.6625 262.21 77.9623 262.974 78.5467 263.558Z" fill="white"/>
<path d="M101.549 255.152C102.868 255.152 103.917 255.571 104.711 256.425C105.505 257.279 105.895 258.418 105.91 259.857L105.94 266.915L102.987 266.93L102.957 260.082C102.957 259.392 102.778 258.853 102.448 258.478C102.118 258.104 101.639 257.909 101.024 257.909C100.35 257.909 99.8256 258.134 99.466 258.583C99.1063 259.033 98.9115 259.677 98.9115 260.516L98.9415 266.96L95.9894 266.975L95.9594 260.127C95.9594 259.437 95.7796 258.898 95.45 258.523C95.1053 258.149 94.6408 257.954 94.0264 257.954C93.367 257.954 92.8425 258.179 92.4529 258.628C92.0633 259.078 91.8685 259.722 91.8835 260.561L91.9135 267.005L88.9314 266.975L88.8865 255.511L91.8385 255.496V256.71C92.5279 255.691 93.5768 255.167 95.0154 255.167C96.424 255.167 97.458 255.706 98.1323 256.8C98.8965 255.706 100.035 255.152 101.549 255.152Z" fill="white"/>
<path d="M117.118 255.406L120.07 255.391L120.115 266.855L117.163 266.87V265.521C116.279 266.645 115.035 267.2 113.432 267.215C111.904 267.215 110.585 266.645 109.491 265.476C108.397 264.307 107.843 262.884 107.828 261.191C107.828 259.497 108.367 258.059 109.446 256.89C110.54 255.721 111.844 255.122 113.372 255.122C114.976 255.122 116.219 255.661 117.118 256.785V255.406ZM111.694 263.483C112.293 264.083 113.042 264.382 113.972 264.382C114.886 264.382 115.65 264.068 116.249 263.468C116.849 262.869 117.148 262.09 117.148 261.146C117.148 260.202 116.834 259.422 116.234 258.823C115.635 258.223 114.871 257.924 113.957 257.924C113.042 257.924 112.278 258.238 111.694 258.838C111.094 259.452 110.81 260.217 110.81 261.176C110.795 262.105 111.094 262.884 111.694 263.483Z" fill="white"/>
<path d="M129.122 255.032C130.38 255.032 131.414 255.436 132.239 256.275C133.063 257.115 133.467 258.268 133.482 259.752L133.512 266.78L130.56 266.795L130.53 260.127C130.53 259.362 130.32 258.778 129.901 258.373C129.481 257.969 128.942 257.774 128.253 257.774C127.488 257.774 126.874 258.014 126.424 258.493C125.975 258.973 125.735 259.677 125.75 260.621L125.78 266.81L122.828 266.825L122.783 255.361L125.735 255.346V256.635C126.424 255.571 127.563 255.032 129.122 255.032Z" fill="white"/>
<path d="M157.503 250.641L157.578 266.675L154.446 266.69L154.401 256.29L149.906 263.753L149.531 263.768L144.991 256.365L145.036 266.735L141.874 266.75L141.799 250.716L145.051 250.701L149.681 258.253L154.221 250.656L157.503 250.641Z" fill="white"/>
<path d="M169.072 255.167L172.024 255.152L172.069 266.615L169.117 266.63V265.282C168.232 266.405 166.989 266.96 165.385 266.975C163.857 266.975 162.553 266.405 161.444 265.237C160.35 264.068 159.796 262.644 159.781 260.951C159.766 259.258 160.32 257.819 161.399 256.65C162.493 255.481 163.797 254.882 165.325 254.882C166.929 254.882 168.172 255.421 169.072 256.545V255.167ZM163.662 263.259C164.261 263.858 165.026 264.158 165.94 264.158C166.854 264.158 167.618 263.843 168.217 263.244C168.817 262.644 169.117 261.865 169.117 260.921C169.117 259.977 168.802 259.198 168.202 258.598C167.588 257.999 166.839 257.699 165.91 257.699C164.996 257.699 164.231 258.014 163.647 258.613C163.048 259.228 162.763 259.992 162.763 260.951C162.763 261.88 163.063 262.659 163.662 263.259Z" fill="white"/>
<path d="M181.09 254.807C182.349 254.807 183.382 255.212 184.207 256.051C185.031 256.89 185.435 258.044 185.45 259.527L185.48 266.555L182.513 266.57L182.483 259.902C182.483 259.138 182.274 258.553 181.854 258.149C181.434 257.744 180.895 257.549 180.206 257.549C179.441 257.549 178.827 257.789 178.377 258.269C177.928 258.748 177.688 259.452 177.703 260.396L177.733 266.585L174.781 266.6L174.736 255.137L177.688 255.122V256.41C178.392 255.346 179.531 254.807 181.09 254.807Z" fill="white"/>
<path d="M191.445 263.768L196.525 263.753L196.54 266.525L187.504 266.57L187.489 264.607L192.299 257.864L187.698 257.879L187.683 255.107L196.27 255.077L196.285 257.04L191.445 263.768Z" fill="white"/>
<path d="M207.778 265.027C206.609 266.196 205.171 266.795 203.477 266.795C201.784 266.795 200.346 266.226 199.177 265.057C198.008 263.888 197.408 262.464 197.408 260.771C197.408 259.078 197.978 257.639 199.147 256.47C200.316 255.301 201.739 254.702 203.432 254.702C205.126 254.702 206.564 255.271 207.748 256.44C208.932 257.609 209.516 259.033 209.531 260.726C209.531 262.419 208.947 263.858 207.778 265.027ZM201.245 263.034C201.829 263.633 202.578 263.918 203.462 263.918C204.347 263.918 205.081 263.618 205.68 263.019C206.28 262.419 206.564 261.655 206.564 260.741C206.564 259.827 206.265 259.063 205.665 258.478C205.066 257.879 204.332 257.594 203.432 257.594C202.548 257.594 201.814 257.894 201.23 258.493C200.645 259.093 200.361 259.857 200.361 260.771C200.361 261.685 200.66 262.434 201.245 263.034Z" fill="white"/>
<path d="M221.385 264.967C220.216 266.136 218.777 266.735 217.084 266.735C215.391 266.735 213.952 266.166 212.783 264.997C211.614 263.828 211.015 262.404 211.015 260.711C211.015 259.018 211.584 257.579 212.753 256.41C213.922 255.241 215.346 254.642 217.039 254.642C218.732 254.642 220.171 255.211 221.355 256.38C222.538 257.549 223.123 258.973 223.138 260.666C223.138 262.359 222.553 263.798 221.385 264.967ZM214.866 262.974C215.45 263.573 216.2 263.858 217.084 263.858C217.968 263.858 218.702 263.558 219.302 262.959C219.901 262.359 220.186 261.595 220.186 260.681C220.186 259.767 219.886 259.003 219.287 258.418C218.687 257.819 217.953 257.534 217.069 257.534C216.185 257.534 215.45 257.834 214.866 258.433C214.282 259.033 213.997 259.782 213.997 260.711C213.967 261.625 214.267 262.374 214.866 262.974Z" fill="white"/>
<path d="M228.158 256.89C228.428 256.156 228.877 255.601 229.522 255.226C230.151 254.852 230.855 254.672 231.635 254.672L231.65 257.969C230.751 257.864 229.941 258.059 229.237 258.523C228.533 259.003 228.173 259.782 228.173 260.891L228.203 266.36L225.251 266.375L225.206 254.912L228.158 254.897V256.89Z" fill="white"/>
<path d="M386.611 229.855L382.685 229.87L382.699 233.512L387.075 233.497V234.591L381.396 234.621L381.351 224.521L386.805 224.491V225.585L382.655 225.6L382.67 228.791L386.596 228.776L386.611 229.855Z" fill="white"/>
<path d="M389.323 227.324L390.357 228.883C390.627 229.287 390.851 229.662 391.091 230.067H391.136C391.376 229.632 391.616 229.257 391.855 228.868L392.874 227.324H394.298L391.84 230.846L394.403 234.577H392.904L391.84 232.944C391.556 232.524 391.316 232.12 391.061 231.685H391.031C390.791 232.12 390.537 232.509 390.267 232.944L389.218 234.577H387.764L390.327 230.861L387.854 227.324H389.323Z" fill="white"/>
<path d="M395.647 229.662C395.647 228.733 395.617 227.984 395.572 227.294H396.756L396.816 228.538H396.845C397.385 227.654 398.239 227.129 399.408 227.114C401.161 227.114 402.48 228.583 402.495 230.786C402.51 233.393 400.921 234.682 399.213 234.697C398.254 234.697 397.415 234.277 396.98 233.573H396.95L396.965 237.514H395.662L395.647 229.662ZM396.95 231.595C396.95 231.79 396.98 231.97 397.01 232.134C397.25 233.049 398.044 233.678 398.988 233.663C400.382 233.663 401.191 232.509 401.176 230.846C401.176 229.392 400.397 228.148 399.003 228.163C398.104 228.163 397.265 228.823 397.01 229.812C396.965 229.977 396.92 230.171 396.92 230.351L396.95 231.595Z" fill="white"/>
<path d="M405.612 225.211C405.627 225.661 405.297 226.021 404.772 226.021C404.308 226.021 403.978 225.661 403.978 225.211C403.978 224.747 404.323 224.387 404.802 224.387C405.297 224.387 405.612 224.747 405.612 225.211ZM404.188 234.502L404.158 227.249H405.477L405.507 234.502H404.188Z" fill="white"/>
<path d="M407.679 229.512C407.679 228.658 407.664 227.924 407.604 227.249H408.758L408.803 228.673H408.863C409.193 227.699 409.972 227.085 410.856 227.07C411.006 227.07 411.111 227.085 411.231 227.115V228.358C411.096 228.328 410.961 228.313 410.781 228.313C409.852 228.313 409.193 229.018 409.028 230.007C408.998 230.186 408.968 230.396 408.968 230.621L408.983 234.487H407.679V229.512Z" fill="white"/>
<path d="M413.419 227.219L415.022 231.49C415.187 231.97 415.367 232.539 415.487 232.974H415.517C415.651 232.539 415.801 231.985 415.981 231.46L417.405 227.204H418.798L416.85 232.374C415.921 234.862 415.277 236.135 414.378 236.93C413.733 237.499 413.089 237.724 412.759 237.799L412.43 236.69C412.759 236.585 413.194 236.375 413.584 236.046C413.943 235.761 414.393 235.251 414.692 234.577C414.752 234.442 414.797 234.337 414.797 234.262C414.797 234.187 414.767 234.083 414.707 233.918L411.995 227.249L413.419 227.219Z" fill="white"/>
<path d="M423.204 224.462C423.998 224.342 424.942 224.252 425.976 224.237C427.849 224.222 429.183 224.657 430.067 225.481C430.966 226.305 431.506 227.459 431.506 229.093C431.521 230.741 431.011 232.09 430.067 233.019C429.123 233.963 427.565 234.487 425.617 234.487C424.688 234.487 423.908 234.457 423.249 234.382L423.204 224.462ZM424.538 233.378C424.867 233.438 425.347 233.453 425.856 233.453C428.644 233.438 430.142 231.88 430.142 229.152C430.142 226.77 428.794 225.271 426.036 225.271C425.362 225.271 424.852 225.331 424.508 225.406L424.538 233.378Z" fill="white"/>
<path d="M437.185 234.367L437.08 233.453H437.036C436.631 234.023 435.852 234.532 434.818 234.547C433.349 234.547 432.6 233.528 432.585 232.479C432.585 230.726 434.128 229.767 436.931 229.767V229.617C436.931 229.018 436.751 227.939 435.282 227.954C434.608 227.954 433.904 228.163 433.394 228.508L433.094 227.639C433.694 227.249 434.563 226.995 435.477 226.98C437.695 226.965 438.234 228.478 438.249 229.932L438.264 232.644C438.264 233.273 438.294 233.888 438.384 234.382L437.185 234.367ZM436.976 230.666C435.537 230.636 433.904 230.906 433.919 232.314C433.919 233.168 434.488 233.573 435.162 233.573C436.106 233.573 436.706 232.974 436.916 232.344C436.961 232.209 436.991 232.06 436.991 231.925L436.976 230.666Z" fill="white"/>
<path d="M441.876 225.017L441.891 227.1L443.779 227.085V228.089L441.891 228.104L441.906 232.015C441.906 232.914 442.16 233.423 442.895 233.423C443.239 233.423 443.494 233.378 443.659 233.333L443.719 234.322C443.464 234.427 443.059 234.502 442.55 234.502C441.936 234.502 441.441 234.307 441.126 233.948C440.752 233.558 440.617 232.914 440.617 232.06L440.602 228.104H439.478V227.1H440.602V225.361L441.876 225.017Z" fill="white"/>
<path d="M445.921 230.936C445.966 232.719 447.105 233.438 448.424 233.438C449.368 233.438 449.937 233.273 450.432 233.064L450.657 234.008C450.192 234.217 449.398 234.457 448.244 234.472C446.011 234.487 444.678 233.019 444.663 230.831C444.648 228.643 445.936 226.92 448.049 226.905C450.417 226.89 451.046 228.973 451.061 230.306C451.061 230.576 451.031 230.786 451.016 230.921L445.921 230.936ZM449.788 229.977C449.803 229.138 449.428 227.834 447.944 227.849C446.611 227.849 446.026 229.078 445.936 229.992L449.788 229.977Z" fill="white"/>
<path d="M392.17 263.693C391.091 265.207 389.577 265.971 387.614 265.986C385.666 265.986 384.138 265.237 383.044 263.738C381.95 262.225 381.396 260.217 381.396 257.699C381.381 255.182 381.92 253.159 382.999 251.645C384.078 250.132 385.591 249.367 387.554 249.352C389.503 249.337 391.031 250.087 392.125 251.6C393.219 253.114 393.773 255.122 393.773 257.639C393.788 260.157 393.249 262.18 392.17 263.693ZM384.602 262.285C385.307 263.363 386.311 263.903 387.614 263.903C388.918 263.903 389.922 263.348 390.626 262.27C391.331 261.176 391.675 259.647 391.675 257.654C391.675 255.661 391.301 254.133 390.596 253.039C389.877 251.945 388.873 251.405 387.569 251.42C386.266 251.42 385.277 251.975 384.572 253.054C383.868 254.148 383.523 255.691 383.538 257.684C383.538 259.662 383.898 261.206 384.602 262.285Z" fill="white"/>
<path d="M395.362 265.656V263.918L400.996 258.119C402.495 256.605 403.259 255.301 403.244 254.208C403.244 253.308 402.959 252.604 402.405 252.11C401.85 251.6 401.176 251.36 400.382 251.36C398.868 251.36 397.774 252.095 397.085 253.533L395.287 252.484C395.781 251.435 396.486 250.656 397.37 250.117C398.254 249.577 399.243 249.307 400.337 249.307C401.685 249.307 402.854 249.742 403.843 250.626C404.847 251.51 405.342 252.694 405.342 254.193C405.342 255.811 404.398 257.579 402.51 259.497L398.434 263.588L405.687 263.558L405.702 265.626L395.362 265.656Z" fill="white"/>
<path d="M408.684 267.859L407.5 267.889L416.581 247.254L417.78 247.224L408.684 267.859Z" fill="white"/>
<path d="M425.901 256.051C427.13 256.275 428.134 256.8 428.913 257.624C429.693 258.448 430.097 259.497 430.097 260.756C430.097 262.314 429.573 263.543 428.509 264.457C427.445 265.356 426.141 265.821 424.613 265.821C423.399 265.821 422.305 265.551 421.361 264.997C420.417 264.442 419.742 263.633 419.338 262.584L421.121 261.52C421.601 263.004 422.769 263.738 424.613 263.723C425.602 263.723 426.411 263.453 427.04 262.929C427.67 262.404 427.969 261.685 427.969 260.741C427.969 259.812 427.655 259.078 427.025 258.553C426.396 258.029 425.587 257.774 424.598 257.774H424.043L423.189 256.47L426.875 251.435L419.742 251.465L419.727 249.472L429.348 249.427V251.3L425.901 256.051Z" fill="white"/>
<path d="M442.745 263.468C441.666 264.982 440.152 265.746 438.189 265.761C436.226 265.776 434.713 265.012 433.619 263.513C432.525 262 431.97 259.992 431.97 257.474C431.955 254.957 432.495 252.934 433.574 251.42C434.653 249.907 436.166 249.143 438.129 249.128C440.092 249.113 441.606 249.877 442.7 251.375C443.793 252.874 444.348 254.897 444.348 257.414C444.348 259.947 443.823 261.955 442.745 263.468ZM435.177 262.06C435.881 263.139 436.885 263.678 438.189 263.678C439.493 263.678 440.497 263.124 441.186 262.045C441.89 260.951 442.235 259.422 442.235 257.429C442.235 255.436 441.86 253.908 441.156 252.814C440.437 251.72 439.433 251.181 438.129 251.196C436.825 251.196 435.836 251.75 435.132 252.829C434.443 253.923 434.083 255.466 434.098 257.459C434.113 259.452 434.473 260.981 435.177 262.06Z" fill="white"/>
<path d="M427.909 83.2419C438.494 83.2419 447.075 74.6611 447.075 64.076C447.075 53.4909 438.494 44.9101 427.909 44.9101C417.324 44.9101 408.743 53.4909 408.743 64.076C408.743 74.6611 417.324 83.2419 427.909 83.2419Z" fill="white"/>
<path d="M453.549 83.1377C442.984 83.1826 434.338 74.6261 434.293 64.0466C434.248 53.4672 442.819 44.8358 453.384 44.7908C463.948 44.7458 472.595 53.3023 472.64 63.8818C472.685 74.4613 464.128 83.0927 453.549 83.1377ZM453.414 51.1744C446.371 51.2044 440.662 56.9587 440.692 64.0167C440.722 71.0597 446.476 76.769 453.534 76.739C460.577 76.7091 466.286 70.9548 466.256 63.8968C466.226 56.8538 460.457 51.1445 453.414 51.1744Z" fill="white"/>
</g>
<defs>
<filter id="filter0_d_8_805" x="0" y="-9" width="538" height="353.489" filterUnits="userSpaceOnUse" color-interpolation-filters="sRGB">
<feFlood flood-opacity="0" result="BackgroundImageFix"/>
<feColorMatrix in="SourceAlpha" type="matrix" values="0 0 0 0 0 0 0 0 0 0 0 0 0 0 0 0 0 0 127 0" result="hardAlpha"/>
<feOffset dy="11"/>
<feGaussianBlur stdDeviation="10"/>
<feComposite in2="hardAlpha" operator="out"/>
<feColorMatrix type="matrix" values="0 0 0 0 0 0 0 0 0 0 0 0 0 0 0 0 0 0 0.25 0"/>
<feBlend mode="normal" in2="BackgroundImageFix" result="effect1_dropShadow_8_805"/>
<feBlend mode="normal" in="SourceGraphic" in2="effect1_dropShadow_8_805" result="shape"/>
</filter>
<linearGradient id="paint0_linear_8_805" x1="75.1684" y1="349.91" x2="458.171" y2="-36.424" gradientUnits="userSpaceOnUse">
<stop stop-color="#ED1C24"/>
<stop offset="1" stop-color="#FCEE21"/>
</linearGradient>
<linearGradient id="paint1_linear_8_805" x1="137.79" y1="157.8" x2="393.874" y2="156.692" gradientUnits="userSpaceOnUse">
<stop stop-color="#35C4FE"/>
<stop offset="1" stop-color="#FCEE21"/>
</linearGradient>
<linearGradient id="paint2_linear_8_805" x1="182.875" y1="157.126" x2="517.451" y2="155.677" gradientUnits="userSpaceOnUse">
<stop stop-color="#2690BA"/>
<stop offset="1" stop-color="#219DFC"/>
</linearGradient>
<linearGradient id="paint3_linear_8_805" x1="101.733" y1="157.513" x2="431.153" y2="156.087" gradientUnits="userSpaceOnUse">
<stop stop-color="#35C4FE"/>
<stop offset="1" stop-color="#BCE068"/>
</linearGradient>
<linearGradient id="paint4_linear_8_805" x1="335.12" y1="257.772" x2="517.89" y2="256.981" gradientUnits="userSpaceOnUse">
<stop stop-color="#FE8235"/>
<stop offset="1" stop-color="#FCB721"/>
</linearGradient>
<linearGradient id="paint5_linear_8_805" x1="223.237" y1="204.329" x2="517.656" y2="203.054" gradientUnits="userSpaceOnUse">
<stop stop-color="#A435FE"/>
<stop offset="1" stop-color="#FC2121"/>
</linearGradient>
</defs>
</svg>
